<?xml version="1.0" encoding="UTF-8"?>
<svg id="uuid-dd707dea-9f17-4ee4-adfa-67e2cf70d045" data-name="Calque 1" xmlns="http://www.w3.org/2000/svg" width="732" height="302" viewBox="0 0 732 302">
  <g>
    <path d="m2,158.15c4.57,1.12,9.14.12,13.7-.06,1.35-.02,2.7-.04,4.06-.05q5.14.26,5.14,5.59v5.95c8.31-16,28.03-14.9,33.18-2.19,1.18-.12,1.39-1.25,1.95-1.95,5.74-7.22,14.9-9.8,23.49-6.5,3.9,1.5,5.98,4.47,6.78,8.5.99,4.97.51,9.99.57,14.99.08,7.08.09,14.17-.02,21.25-.03,1.88.56,2.5,2.38,2.32,1.4-.14,2.83.02,4.25-.04,1.21-.05,1.79.35,1.79,1.66,0,1.24-.4,1.74-1.69,1.74-8.72-.04-17.44-.05-26.15,0-1.41.01-1.57-.65-1.58-1.79-.02-1.31.55-1.56,1.76-1.64,5.19-.34,5.18-.39,5.18-5.64,0-10.03.02-20.05-.02-30.08-.01-2.71.23-5.79-2.85-7.08-3-1.25-6.02-.51-8.63,1.38-4.79,3.45-6.84,8.5-7.06,14.08-.35,8.49-.13,17-.21,25.49-.01,1.36.33,2.03,1.81,1.9,1.08-.1,2.19.06,3.27-.04,1.42-.13,1.91.39,1.9,1.82,0,1.38-.63,1.59-1.8,1.58-8.06-.04-16.13-.05-24.19.01-1.41.01-1.92-.38-1.88-1.83.04-1.35.64-1.52,1.81-1.59,4.92-.3,4.91-.34,4.92-5.21.02-9.92.05-19.83.07-29.75,0-3.07.23-6.37-3.31-7.8-3.71-1.51-6.79,0-9.38,2.69-4.18,4.37-6.19,9.69-6.31,15.65-.15,7.3.07,14.6-.1,21.9-.05,2.29.78,2.85,2.77,2.56.32-.05.68-.09.98,0,1.24.43,3.56-1.3,3.51,1.76-.04,2.88-2.2,1.45-3.35,1.52-3.69.23-7.4.17-11.1.22-1.23-.02-2.47-.03-3.7-.04-3.98-.09-7.97-.18-11.95-.28v-3.27c1.84.02,3.71-.1,5.53.1,2.46.27,3.3-.45,3.26-3.11-.17-10.86-.03-21.72-.1-32.58-.02-2.68,1.22-6.27-.51-7.79-1.84-1.62-5.38-.43-8.18-.44v-3.92Z" style="fill: #7c1f1d; fill-rule: evenodd;"/>
    <path d="m19.76,158.04c-1.35.02-2.7.03-4.06.05,5.56-26.66,16.89-50.72,33.15-72.44C78.58,45.97,118.26,20.67,165.06,5.76c4.08-1.3,8.39-1.89,12.23-3.93h3.93c1.66,3.68-1.21,3.92-3.49,4.51-21.61,5.61-42.18,13.78-61.53,24.93-48.57,27.97-80.8,68.67-95.5,122.97-.34,1.26-.63,2.53-.94,3.8Z" style="fill: #fbc424; fill-rule: evenodd;"/>
    <path d="m111.89,182.1c-17.43-13.04-28.52-30.15-31.97-51.67-4.92-30.66,6.22-55.89,28.14-76.62,21.63-20.46,47.71-30.46,77.54-29.42,22.56.78,42.63,8.21,58.41,25.07,10.67,11.4,16.12,25.43,19.59,40.33,5.02,21.53,4.56,43.17,1,64.84-.16.97-.28,1.94-.42,2.9-1.6.16-3.19.32-4.78.48.84-6.04,1.81-12.06,2.49-18.11,2.05-18.31,1.84-36.53-2.84-54.48-6.13-23.5-19.42-41.16-42.23-50.74-15.97-6.71-32.63-8.2-49.66-5.4-26.77,4.41-49.61,16.15-66.85,37.42-26.58,32.78-24.48,79.79,11.61,109.06-.01,2.11-.02,4.22-.03,6.33Z" style="fill: #fcc528; fill-rule: evenodd;"/>
    <path d="m172.34,207.03c.08,1.73-.61,2.35-2.47,2.33-9.68-.1-19.36-.04-29.04-.05-1.04,0-2.15.32-2.18-1.5-.02-1.75.79-1.97,2.18-1.87.97.07,1.96.01,2.94.01q4.91,0,4.64-5.06c.02-1.5.03-2.99.05-4.49.02-20.49.05-40.97.05-61.46,0-2.49.73-5.61-.48-7.27-1.14-1.56-4.46-.4-6.81-.48-1.26-.04-2.04-.21-2.04-1.76,0-1.55.76-1.77,2.03-1.76,6.33.07,12.63-.32,18.84-1.53,2.41-.47,2.86.22,2.84,2.53-.1,15.91-.07,31.82-.05,47.73.01,9.59.08,19.17.13,28.76-.3,4.83-.29,4.74,4.77,4.84,1.53.03,3.47-1.09,4.6,1.01Z" style="fill: #7b1d1c; fill-rule: evenodd;"/>
    <path d="m259.4,158.02c1.6-.16,3.19-.32,4.79-.48,12.82,1.08,22.01,7.35,26.1,19.63,5.75,17.23-8.88,35.05-27.53,34.12-4.9-.24-9.28-1.92-13.55-4.09-1.06-.76-2.12-1.52-3.17-2.29-3.35-3.22-6.13-6.85-7.94-11.16-1.17-3.6-.69-7.42-1.44-11.08,1.41-12.4,9.43-21.1,22.75-24.66Zm-.93,3.55c-3.36,1.17-4.7,3.92-5.34,7.08-1.09,5.42-.97,10.91-.58,16.39-.11,4.27-.34,8.53.25,12.79.04.32.07.65.12.97,1.06,6.9,3.89,9.54,10.41,9.7,7.41.18,10.88-2.15,11.74-9.26,1.2-9.82,1.46-19.77.09-29.6-.94-6.77-4.47-9.16-11.65-8.93-1.76-.15-3.45.07-5.04.86Z" style="fill: #7c1f1d; fill-rule: evenodd;"/>
    <path d="m246.04,204.91c1.06.76,2.11,1.53,3.17,2.29-7.61,17.32-16.9,33.63-29.15,48.13-17.84,21.1-39.18,37.25-66.81,42.26-42.2,7.64-80.36-1.25-111.75-31.92-15.11-14.76-23.29-33.37-27.08-53.99-.14-.75-.3-1.49-.46-2.23,1.23.01,2.47.03,3.7.04,6.02,33.66,25.02,57.77,54.77,73.72,19.23,10.3,39.95,14.76,61.72,13.43,28.72-1.76,52.95-13.74,73.47-33.58,15.89-15.35,27.46-33.64,36.34-53.74.66-1.48,1.39-2.94,2.09-4.41Z" style="fill: #fbc424; fill-rule: evenodd;"/>
    <path d="m220.88,205.23c-9.07,6.72-18.79,8-29.2,3.49-1.95-1.39-3.89-2.79-5.84-4.18-7.29-8.22-9.97-17.56-6.85-28.3.6-1.46,1.19-2.93,1.79-4.39,6.52-10.22,15.37-15.69,27.89-13.69,8.79,1.4,16.14,7.84,17.72,15.57-4.52-1.79-9.33-2.45-13.99-3.69-.47-2.82-.17-6.02-3.01-7.83-3.56-2.26-7.49-2.3-11.23-.72-3.51,1.49-4.54,4.7-4.47,8.32-.03,1.22-.06,2.44-.09,3.66q-.43,4.3,3.62,4.3c4,0,8.01-.2,11.99.07,2.78.18,3.4-.9,2.88-3.29,4.35-.43,8.31,1.03,12.23,2.6,1.15.46,2.58.74,2.85,2.33-.42,2.05-2.06,1.55-3.39,1.56-9.35.02-18.7.06-28.04-.03-1.82-.02-2.44.45-2.37,2.34.19,4.56.06,9.13.28,13.68.15,3.03.6,6.07,3.03,8.32,3.45,5.06,15.51,3.7,20.16-1.47,3.37-2.3,5.25-5.69,6.58-9.38.64-1.77,1.94-1.73,3.09-1.34,1.35.46.49,1.67.19,2.48-.57,1.51-1.32,2.96-1.99,4.43-1.28,1.72-2.56,3.45-3.84,5.17Z" style="fill: #7c201d; fill-rule: evenodd;"/>
    <path d="m303.09,200.05c0-2.29,0-4.57,0-6.86,0-1.16-.31-2.37,1.66-2.4,1.64-.02,2.32.52,2.59,2.07.68,3.93,2.27,7.48,4.87,10.51,4.97,5.81,13.21,6.84,19.06,2.41,3.06-2.32,4.32-5.48,3.54-9.2-.71-3.4-3.62-4.42-6.56-5.03-4.04-.84-8.2-1.17-12.17-2.25-9.76-2.65-13.95-9.87-11.88-19.94,1.58-7.73,9.28-12.65,18.27-11.59,2.26.26,4.49.77,6.61,1.68,2.13.92,4.46,3.49,6.05-.73.22-.59,1.19-.43,1.81-.27.89.23.6,1.05.6,1.63.03,4.03.02,8.06.01,12.09,0,.86.15,1.84-1.24,1.69-1.09-.12-2.4.48-2.7-1.43-.56-3.57-2.48-6.44-5.17-8.8-4.11-3.61-10.38-4.05-14.83-1.08-2.97,1.97-3.97,4.79-3.54,8.18.38,3.02,2.96,3.55,5.24,4.08,4.44,1.04,8.96,1.69,13.39,2.77,9.01,2.2,12.14,6.26,12.11,15.45,0,1.84.04,3.73-.33,5.52-2.06,9.78-11.75,15.03-22.31,12.22-2.55-.68-5.05-1.57-7.06-3.24-1.68-1.39-2.77-1.14-4.01.36-.87,1.05-1.95,1.96-3.37,1.32-1.3-.59-.56-1.94-.61-2.93-.11-2.06-.04-4.14-.04-6.21Z" style="fill: #7d221e; fill-rule: evenodd;"/>
    <path d="m111.89,182.1c.01-2.11.02-4.22.03-6.33.06-2.06.23-4.13.15-6.18-.09-2.46,1.09-5.61-.56-7.15-1.25-1.16-4.33-.36-6.6-.43-.33-.01-.65,0-.98,0-1.65.02-1.13-1.22-1.21-2.1-.11-1.12.34-1.37,1.51-1.38,6.52-.05,13.04-.11,19.55-.47,2.24-.12,2.71.43,2.69,2.56-.05,8.59.08,17.17.15,25.76-.35,1.84-.29,3.69-.09,5.53-.04,4.03,0,8.06-.14,12.09-.06,1.67.64,2.05,2.12,1.98,1.85-.09,3.7,0,5.56-.03,1.17-.02,2.08-.06,2.07,1.63,0,1.53-.61,1.77-1.93,1.76-9.91-.04-19.83-.03-29.75,0-1.15,0-1.78-.16-1.79-1.57,0-1.43.46-2.01,1.87-1.82.21.03.43,0,.65,0,6.9-.14,6.93-.14,6.89-7.23-.03-5.55-.13-11.1-.21-16.64Z" style="fill: #7c1f1d; fill-rule: evenodd;"/>
    <path d="m220.88,205.23c1.28-1.72,2.56-3.45,3.84-5.17,3.99-1.09,8.5-6.51,8.81-10.58.31-4.03-2.21-8.01-6.35-10-.27-1.6-1.7-1.87-2.85-2.33-3.92-1.57-7.88-3.03-12.23-2.6-6.12-1.06-12.3-1.21-18.49-1.07.03-1.22.06-2.44.09-3.66,6.24-.32,12.47-.05,18.7.23,4.66,1.24,9.47,1.9,13.99,3.69,4.32,1.94,7.49,5.22,10.26,8.95.75,3.66.27,7.47,1.44,11.07-3.81,6.72-10.09,9.73-17.22,11.48Z" style="fill: #fac11d; fill-rule: evenodd;"/>
    <path d="m126.54,191.92c-.2-1.85-.26-3.7.09-5.53,7.04,3.85,14.08,7.7,21.82,10.04-.02,1.5-.03,2.99-.05,4.49-7.66-2.08-14.69-5.71-21.86-8.99Z" style="fill: #fac11d; fill-rule: evenodd;"/>
    <path d="m185.84,204.54c1.94,1.39,3.89,2.79,5.84,4.18-6.52.2-12.9-1.04-19.34-1.69-1.13-2.1-3.07-.98-4.6-1.01-5.07-.11-5.07-.01-4.77-4.84,7.58,1.45,15.11,3.2,22.87,3.36Z" style="fill: #fbc424; fill-rule: evenodd;"/>
    <path d="m263.51,160.71c-2.59,12.66-5.99,25.08-10.71,37.12-.59-4.25-.36-8.52-.25-12.79,2.8-7.62,4.63-15.48,5.91-23.48,1.59-.78,3.28-1.01,5.04-.86Z" style="fill: #fbc424; fill-rule: evenodd;"/>
    <path d="m178.99,176.24c-3.16.55-5.98,1.93-8.71,3.53-1.32.78-2.74,1.32-3.71-.26-1.14-1.84.6-2.47,1.77-3.14,3.88-2.22,7.93-4.04,12.44-4.53-.6,1.46-1.19,2.92-1.79,4.39Z" style="fill: #fbc424; fill-rule: evenodd;"/>
    <path d="m196.69,205.34c6.76.08,13.46-.6,20.15-1.46-4.64,5.16-16.7,6.52-20.15,1.46Z" style="fill: #fac11d; fill-rule: evenodd;"/>
    <path d="m126.93,134.88c-.07,4.48-3.8,8.05-8.25,7.92-4.36-.14-7.79-3.67-7.8-8.04-.01-4.54,3.51-8.04,8.08-8.01,4.54.03,8.05,3.6,7.98,8.13Z" style="fill: #e2101d; fill-rule: evenodd;"/>
  </g>
  <g>
    <path d="m377.28,176.84l2.63-.25.7,7.43h.07c.48-.74,1.45-1.77,3.42-1.95,3-.28,5.32,1.94,5.61,5.07.3,3.13-1.43,5.74-4.67,6.05-1.47.14-2.91-.3-3.79-1.51h-.04s.15,1.59.15,1.59l-2.5.24-1.58-16.67Zm6.41,7.67c-1.93.18-2.95,1.81-2.79,3.47.16,1.65,1.46,3.07,3.39,2.88,1.93-.18,2.95-1.81,2.79-3.47-.16-1.65-1.46-3.07-3.39-2.88Z" style="fill: #894b19;"/>
    <path d="m390.24,181.76l2.9-.27,3.63,7.07h.04s1.94-7.6,1.94-7.6l2.74-.26-3.76,13.33c-.58,2.06-1.4,3.18-3.73,3.4-.68.06-1.37.04-2.04-.08l.1-2.41c.43.12.9.18,1.36.14,1.29-.12,1.6-.62,1.93-1.76l.39-1.3-5.51-10.25Z" style="fill: #894b19;"/>
  </g>
  <g>
    <path d="m470.63,151.52h-13.08l6.21-17.21,6.87,17.21Zm-1.74-23.11h-5.23l-13.62,35.96c-2.06,5.18-2.65,6.51-8.53,8.09v1h18.41v-1c-2.98-.46-7.54-.46-7.54-4.51,0-3.18,2.91-10.06,4.03-13.38h15.07l6.87,18.89h12.47v-1c-5.69-1-6.55-2.91-8.32-7.76l-13.62-36.29Z" style="fill: #894b19;"/>
    <path d="m604.52,151.58h-13.09l6.21-17.21,6.88,17.21Zm-1.74-23.11h-5.23l-13.61,35.96c-2.06,5.18-2.64,6.51-8.53,8.09v.98h18.41v-.98c-2.98-.47-7.55-.47-7.55-4.51,0-3.17,2.91-10.06,4.03-13.38h15.07l6.87,18.88h12.48v-.98c-5.69-1.01-6.54-2.91-8.32-7.76l-13.63-36.29Z" style="fill: #894b19;"/>
    <path d="m509.37,129.66c6.94-.07,14.11,3.03,14.11,10.8,0,7.35-7.76,10.27-14.11,10.34v-21.14Zm0,43.79v-21.29c4.64.8,7.02-.78,9.65,4.72,1.38,2.83,5.3,8.6,9.65,13.16,3.83,3.99,10.18,3.68,17.17,3.41v-1.07c-11.29-1.66-18.7-13.05-23.77-22l-.35-.47c4.76-2.11,9.07-5.3,9.07-10.85,0-3.18-2.2-10.67-18.85-10.67h-8.79l-.07,34.18c-.21,6.82-.27,8.81-8.2,9.87v1h14.48Z" style="fill: #894b19;"/>
    <path d="m652.99,128.41v.99c-7.92,1.06-8.2,3.04-8.2,9.87v21.73c0,3.32,0,6.83.99,10.01l8.07.4c10.04.24,11.69-2.18,16.79-10.66l.85.39-3.76,12.33h-37.84v-1c7.93-1.06,7.99-3.05,8.18-9.87v-34.18h14.93Z" style="fill: #894b19;"/>
    <path d="m674.5,173.45v-1c7.92-1.06,7.99-3.05,8.19-9.87v-34.18h14.78v.99c-7.94,1.06-8,3.04-8.2,9.87v34.19h-14.76Z" style="fill: #894b19;"/>
    <path d="m725.89,140.07h-1.05c-1.52-5.37-3.23-9.87-9.77-9.87-4.24,0-7.28,2.24-7.28,6.61,0,11.47,22.21,11.07,22.21,24.44,0,8.56-8.45,12.99-16.05,12.99-4.05,0-9.4-.98-12.75-3.17v-11.46h1.19c.84,6.35,5.28,11.9,12.56,11.9,4.89,0,8.11-2.17,8.11-7.33,0-11.79-21.46-10.73-21.46-23.98,0-7.76,7.67-12.65,14.73-12.65,3.38,0,6.74,1.01,9.66,2.58l-.09,9.94Z" style="fill: #894b19;"/>
    <path d="m585.09,191.26c66.52,0,123.57,4.18,144.71,6.84-8.98-3.21-70.6-13.11-144.71-13.11s-134.81,9.9-143.78,13.11c21.13-2.66,77.27-6.84,143.78-6.84Z" style="fill: #c9d200;"/>
    <g>
      <path d="m700.97,100.05c-2.69,0-5.03.76-6.93,2.24.1,0,.18,0,.27,0h9.07s-2.51,9.54-3.37,12.61c-1.08,3.81-5.05,5.39-8.72,5.39,0,0-2.44-.06-5.08.07-.33,1.1-.63,2.02-.91,2.64,3.82-1.09,12.09-.87,12.09-.87,4.4,0,9.16-1.92,10.44-6.63,1.03-3.77,3.98-15.45,3.98-15.45h-10.87Z" style="fill: #c9d200;"/>
      <path d="m693.31,104.05c-4.07,0-6.85,2.4-8.24,7.11-.33,1.12-1.62,6.48-2.38,8.11,2.62-.71,8.3-.57,8.3-.57,3.02,0,6.27-1.28,7.16-4.42.7-2.52,2.61-10.23,2.61-10.23h-7.46Z" style="fill: #00722d;"/>
    </g>
    <path d="m441.58,231.23v-.56c4.31-.58,4.34-1.64,4.45-5.34v-18.55h7.96v.53c-4.3.59-4.33,1.67-4.44,5.37v18.55h-7.96Z" style="fill: #894b19;"/>
    <path d="m471.89,222.34l-.03,4.71c0,2.95.14,3.23,2.51,3.62v.56h-5.29v-7.98c0-1.95.45-5.95-4.01-5.95-1.54,0-2.61.3-3.62,1.34v12.59h-5.37v-.56c2.47-.39,2.58-.82,2.62-3.62v-7.62c-.04-2.74-.15-3.16-2.05-3.57v-.53h4.81v2.45c1.65-1.44,3.51-2.81,5.81-2.81,5.29,0,4.62,5.43,4.62,7.37Z" style="fill: #894b19;"/>
    <path d="m487.42,219.41h-.72c-.18-1.7-.83-3.23-3.01-3.38-1.47-.09-2.36.88-2.36,2.32,0,3.69,7.66,3.77,7.77,8.31.08,3.67-2.61,5.16-6.13,5-1.64-.08-2.65-.22-4.27-.91l.21-4.5.83-.03c-.03,2.21,1.19,4.26,3.72,4.26,1.65,0,2.77-1.06,2.77-2.67,0-4.1-7.49-3.2-7.49-8.35,0-2.81,2.44-4.5,4.98-4.5,1.4,0,2.69.26,3.87,1.33l-.17,3.1Z" style="fill: #894b19;"/>
    <path d="m495.2,216.84h-2.4v-.54c2.98-1.43,3.73-2.65,4.72-4.72h.63v3.75h2.88v1.5h-2.81v10.21c.03,2.8.15,3.23,2.81,3.62v.56h-5.83v-14.39Z" style="fill: #894b19;"/>
    <path d="m518.11,216.84h-2.4v-.54c2.97-1.43,3.73-2.65,4.73-4.72h.62v3.75h2.88v1.5h-2.81v10.21c.04,2.8.16,3.23,2.81,3.62v.56h-5.83v-14.39Z" style="fill: #894b19;"/>
    <path d="m551.8,216.85h-2.4v-.54c2.98-1.42,3.73-2.65,4.73-4.72h.61v3.75h2.88v1.5h-2.81v10.21c.04,2.8.15,3.23,2.81,3.62v.56h-5.83v-14.39Z" style="fill: #894b19;"/>
    <path d="m504.34,215.86v-.53h5.59v11.71c0,2.95.14,3.23,2.8,3.62v.56h-5.81v-11.72c0-2.81-.11-3.23-2.58-3.64Zm5.72-7.71c0,1.08-.89,2-1.97,2s-1.97-.92-1.97-2,.89-1.97,1.97-1.97,1.97.9,1.97,1.97Z" style="fill: #894b19;"/>
    <path d="m545.87,215.34v.49c-2.47.41-2.58.84-2.58,3.72l-.04,7.44c.08,2.87.18,3.3,2.66,3.69v.56h-5.64v-2.27c-1.94,1.41-4.05,2.63-6.49,2.63-4.05,0-3.97-3.7-3.97-5.21v-6.9c-.04-2.81-.15-3.24-2.62-3.65v-.49h5.37v8.88c0,1.46-.43,5.36,3.77,5.36,1.46,0,2.94-.63,4.02-1.6v-12.65h5.52Z" style="fill: #894b19;"/>
    <path d="m582.96,222v4.19c0,2.31-.25,4.28-3.11,4.28-1.38,0-3.99-.86-3.99-4.31,0-2.98,2.41-4.66,4.8-4.66.84,0,1.55.18,2.31.5Zm2.11-5.43c.02-1.93.09-2.23,1.8-2.49v-.39h-3.9v7.53c-1.21-.66-2.73-1.19-4.13-1.19-2.76,0-5.29,2.74-5.29,5.34,0,4.39,4.02,6.1,7.38,6.1,1.49,0,2.8-.39,4.14-.99v-13.91Z" style="fill: #894b19;"/>
    <path d="m601.67,220.26v.36c-1.7.27-1.78.57-1.78,2.55l-.02,5.14c.04,1.98.13,2.27,1.83,2.54v.39h-3.83v-1.57c-1.33.97-2.8,1.81-4.49,1.81-2.8,0-3-2.55-3-3.59v-4.78c-.03-1.92-.09-2.22-1.81-2.49v-.36h3.97v6.13c0,1.03-.29,3.59,2.6,3.59,1.01,0,2.02-.33,2.77-1.03v-8.7h3.76Z" style="fill: #894b19;"/>
    <path d="m624.53,227.74l1.59-3.82c.48-1.25,2.13-5.49,2.13-6.68s-1.36-1.23-2.26-1.38v-.53h6.24v.53c-2.22-.09-3.05,2.78-3.88,4.73l-4.72,11.02h-.58l-5.25-12.68c-.68-1.62-.89-2.88-2.93-3.07v-.53h4.66l4.98,12.4Z" style="fill: #894b19;"/>
    <path d="m638.06,220.81c.25-2.91,1.76-5.03,3.8-5.03,1.91,0,3.24,1.94,3.3,4.49l-7.1.55Zm6.56-15.32l-5.34,7.45.49.43,6.53-6.12-1.68-1.76Zm-6.68,16.14l10.52-.42c.21-4.03-2.26-6.23-5.48-6.23-4.86,0-8.07,4-8.07,8.64,0,4.32,3.08,7.98,7.52,7.98,2.8,0,5.23-1.82,6.61-4.16l-.55-.4c-1.07,1.44-2.36,2.26-4.24,2.26-4.04,0-6.56-3.13-6.31-7.65Z" style="fill: #894b19;"/>
    <path d="m661.11,225.3c-1.61,0-3.76-1.63-3.76-5.19,0-1.94.75-4.34,3.08-4.34,2.68,0,3.73,2.72,3.73,5.07,0,2.01-.64,4.46-3.05,4.46Zm1.73,5.7c.89-.03,5.56-.54,5.56,2.84,0,3.2-4.01,4.32-6.6,4.32-2.02,0-5.8-.72-5.8-3.35,0-1.59,2.03-3.02,3.34-3.59l3.51-.23Zm3.91-12.93c-.18-.66.14-1.26.93-1.35.53-.04,1.11.44,1.48.76.53-.25,1.22-.83,1.22-1.48,0-.6-.54-1.04-1.19-1.04-1.19,0-2.26,1.08-2.87,2.13-1-1.81-3.61-2.13-5.26-2.13-3.38,0-6.74,2.05-6.74,5.77,0,2.02,1.22,3.62,2.93,4.6-.82.65-2.71,2.04-2.71,3.15,0,1.65,2.29,2.56,3.65,2.74-2.04,1.07-4.8,2.32-4.8,5.02,0,1.51,1.75,3.67,6.02,3.67,6.39,0,11.16-4.01,11.16-7.54,0-2.4-2.11-4.03-5.95-3.89l-4.6.18c-3.31.16-3.34-1.94-2.15-3.06.85.34,1.79.46,2.7.46,3.37,0,6.67-2.07,6.67-5.74,0-.86-.25-1.56-.47-2.26Z" style="fill: #894b19;"/>
    <path d="m677.5,220.81c.26-2.91,1.76-5.03,3.79-5.03,1.92,0,3.24,1.94,3.31,4.49l-7.1.55Zm6.55-15.32l-5.33,7.45.51.43,6.53-6.12-1.71-1.76Zm-6.66,16.14l10.51-.42c.22-4.03-2.27-6.23-5.49-6.23-4.85,0-8.06,4-8.06,8.64,0,4.32,3.08,7.98,7.52,7.98,2.8,0,5.23-1.82,6.6-4.16l-.55-.4c-1.06,1.44-2.36,2.26-4.21,2.26-4.07,0-6.59-3.13-6.33-7.65Z" style="fill: #894b19;"/>
    <path d="m694.69,216.84h-2.4v-.54c2.96-1.43,3.73-2.65,4.72-4.72h.64v3.75h2.88v1.5h-2.81v10.21c.06,2.8.17,3.23,2.81,3.62v.56h-5.84v-14.39Z" style="fill: #894b19;"/>
    <path d="m712.83,223.34v4.94c-.64.67-1.62,1.39-2.59,1.39-1.65,0-2.86-.93-2.86-2.42,0-3.33,3.11-3.5,5.45-3.91Zm0-.78c-6.05.87-8.06,2.53-8.36,4.81-.26,2.17,1.51,4.22,3.8,4.22,1.83,0,3.42-1.14,4.56-2.45l.16,2.09h5.15v-.56c-2.47-.39-2.58-.82-2.62-3.62l.08-6.69c0-2.87-1-5.39-4.29-5.39-2.92,0-6.88,3.74-6.88,4.72,0,.4.56.36.84.36l1.78-.1c0-1.99-.23-3.17,2.24-3.17,2.82,0,3.84,1.62,3.54,5.78Z" style="fill: #894b19;"/>
    <path d="m725.8,205.8v21.25c.03,2.8.14,3.23,2.78,3.62v.56h-5.93v-21.29c0-2.76-.11-3.2-2.59-3.58v-.55h5.73Z" style="fill: #894b19;"/>
    <path d="m535.18,128.12v1.13c5.74.78,7.35,4.72,9.24,9.33l17.12,36.82h1.19l3.34-8.7-17.78-38.49-12.96-.08h-.15Z" style="fill: #894b19;"/>
    <path d="m592.55,104.15l-.09.04-27.78,59.54-3.14,11.67h1.9l14.58-30.55c11.63-27.27,19.72-40.39,23.82-40.39l.27-.03v-1.51l-.25-.04c-5.22-.7-9.16,1.19-9.3,1.28Z" style="fill: #bb7400;"/>
  </g>
</svg>