<?xml version="1.0" encoding="UTF-8"?>
<svg id="uuid-d11c438a-cd87-431c-a36b-c6b17aa610af" data-name="Calque 1" xmlns="http://www.w3.org/2000/svg" width="343" height="302" viewBox="0 0 343 302">
  <path d="m2.1,158.15c4.57,1.12,9.14.12,13.7-.06,1.35-.02,2.7-.04,4.06-.05q5.14.26,5.14,5.59v5.95c8.31-16,28.03-14.9,33.18-2.19,1.18-.12,1.39-1.25,1.95-1.95,5.74-7.22,14.9-9.8,23.49-6.5,3.9,1.5,5.98,4.47,6.78,8.5.99,4.97.51,9.99.57,14.99.08,7.08.09,14.17-.02,21.25-.03,1.88.56,2.5,2.38,2.32,1.4-.14,2.83.02,4.25-.04,1.21-.05,1.79.35,1.79,1.66,0,1.24-.4,1.74-1.69,1.74-8.72-.04-17.44-.05-26.15,0-1.41.01-1.57-.65-1.58-1.79-.02-1.31.55-1.56,1.76-1.64,5.19-.34,5.18-.39,5.18-5.64,0-10.03.02-20.05-.02-30.08-.01-2.71.23-5.79-2.85-7.08-3-1.25-6.02-.51-8.63,1.38-4.79,3.45-6.84,8.5-7.06,14.08-.35,8.49-.13,17-.21,25.49-.01,1.36.33,2.03,1.81,1.9,1.08-.1,2.19.06,3.27-.04,1.42-.13,1.91.39,1.9,1.82,0,1.38-.63,1.59-1.8,1.58-8.06-.04-16.13-.05-24.19.01-1.41.01-1.92-.38-1.88-1.83.04-1.35.64-1.52,1.81-1.59,4.92-.3,4.91-.34,4.92-5.21.02-9.92.05-19.83.07-29.75,0-3.07.23-6.37-3.31-7.8-3.71-1.51-6.79,0-9.38,2.69-4.18,4.37-6.19,9.69-6.31,15.65-.15,7.3.07,14.6-.1,21.9-.05,2.29.78,2.85,2.77,2.56.32-.05.68-.09.98,0,1.24.43,3.56-1.3,3.51,1.76-.04,2.88-2.2,1.45-3.35,1.52-3.69.23-7.4.17-11.1.22-1.23-.02-2.47-.03-3.7-.04-3.98-.09-7.97-.18-11.95-.28v-3.27c1.84.02,3.71-.1,5.53.1,2.46.27,3.3-.45,3.26-3.11-.17-10.86-.03-21.72-.1-32.58-.02-2.68,1.22-6.27-.51-7.79-1.84-1.62-5.38-.43-8.18-.44v-3.92Z" style="fill: #7c1f1d; fill-rule: evenodd;"/>
  <path d="m19.86,158.04c-1.35.02-2.7.03-4.06.05,5.56-26.66,16.89-50.72,33.15-72.44C78.67,45.97,118.35,20.67,165.16,5.76c4.08-1.3,8.39-1.89,12.23-3.93h3.93c1.66,3.68-1.21,3.92-3.49,4.51-21.61,5.61-42.18,13.78-61.53,24.93-48.57,27.97-80.8,68.67-95.5,122.97-.34,1.26-.63,2.53-.94,3.8Z" style="fill: #fbc424; fill-rule: evenodd;"/>
  <path d="m111.99,182.1c-17.43-13.04-28.52-30.15-31.97-51.67-4.92-30.66,6.22-55.89,28.14-76.62,21.63-20.46,47.71-30.46,77.54-29.42,22.56.78,42.63,8.21,58.41,25.07,10.67,11.4,16.12,25.43,19.59,40.33,5.02,21.53,4.56,43.17,1,64.84-.16.97-.28,1.94-.42,2.9-1.6.16-3.19.32-4.78.48.84-6.04,1.81-12.06,2.49-18.11,2.05-18.31,1.84-36.53-2.84-54.48-6.13-23.5-19.42-41.16-42.23-50.74-15.97-6.71-32.63-8.2-49.66-5.4-26.77,4.41-49.61,16.15-66.85,37.42-26.58,32.78-24.48,79.79,11.61,109.06-.01,2.11-.02,4.22-.03,6.33Z" style="fill: #fcc528; fill-rule: evenodd;"/>
  <path d="m172.43,207.03c.08,1.73-.61,2.35-2.47,2.33-9.68-.1-19.36-.04-29.04-.05-1.04,0-2.15.32-2.18-1.5-.02-1.75.79-1.97,2.18-1.87.97.07,1.96.01,2.94.01q4.91,0,4.64-5.06c.02-1.5.03-2.99.05-4.49.02-20.49.05-40.97.05-61.46,0-2.49.73-5.61-.48-7.27-1.14-1.56-4.46-.4-6.81-.48-1.26-.04-2.04-.21-2.04-1.76,0-1.55.76-1.77,2.03-1.76,6.33.07,12.63-.32,18.84-1.53,2.41-.47,2.86.22,2.84,2.53-.1,15.91-.07,31.82-.05,47.73.01,9.59.08,19.17.13,28.76-.3,4.83-.29,4.74,4.77,4.84,1.53.03,3.47-1.09,4.6,1.01Z" style="fill: #7b1d1c; fill-rule: evenodd;"/>
  <path d="m259.5,158.02c1.6-.16,3.19-.32,4.79-.48,12.82,1.08,22.01,7.35,26.1,19.63,5.75,17.23-8.88,35.05-27.53,34.12-4.9-.24-9.28-1.92-13.55-4.09-1.06-.76-2.12-1.52-3.17-2.29-3.35-3.22-6.13-6.85-7.94-11.16-1.17-3.6-.69-7.42-1.44-11.08,1.41-12.4,9.43-21.1,22.75-24.66Zm-.93,3.55c-3.36,1.17-4.7,3.92-5.34,7.08-1.09,5.42-.97,10.91-.58,16.39-.11,4.27-.34,8.53.25,12.79.04.32.07.65.12.97,1.06,6.9,3.89,9.54,10.41,9.7,7.41.18,10.88-2.15,11.74-9.26,1.2-9.82,1.46-19.77.09-29.6-.94-6.77-4.47-9.16-11.65-8.93-1.76-.15-3.45.07-5.04.86Z" style="fill: #7c1f1d; fill-rule: evenodd;"/>
  <path d="m246.13,204.91c1.06.76,2.11,1.53,3.17,2.29-7.61,17.32-16.9,33.63-29.15,48.13-17.84,21.1-39.18,37.25-66.81,42.26-42.2,7.64-80.36-1.25-111.75-31.92-15.11-14.76-23.29-33.37-27.08-53.99-.14-.75-.3-1.49-.46-2.23,1.23.01,2.47.03,3.7.04,6.02,33.66,25.02,57.77,54.77,73.72,19.23,10.3,39.95,14.76,61.72,13.43,28.72-1.76,52.95-13.74,73.47-33.58,15.89-15.35,27.46-33.64,36.34-53.74.66-1.48,1.39-2.94,2.09-4.41Z" style="fill: #fbc424; fill-rule: evenodd;"/>
  <path d="m220.97,205.23c-9.07,6.72-18.79,8-29.2,3.49-1.95-1.39-3.89-2.79-5.84-4.18-7.29-8.22-9.97-17.56-6.85-28.3.6-1.46,1.19-2.93,1.79-4.39,6.52-10.22,15.37-15.69,27.89-13.69,8.79,1.4,16.14,7.84,17.72,15.57-4.52-1.79-9.33-2.45-13.99-3.69-.47-2.82-.17-6.02-3.01-7.83-3.56-2.26-7.49-2.3-11.23-.72-3.51,1.49-4.54,4.7-4.47,8.32-.03,1.22-.06,2.44-.09,3.66q-.43,4.3,3.62,4.3c4,0,8.01-.2,11.99.07,2.78.18,3.4-.9,2.88-3.29,4.35-.43,8.31,1.03,12.23,2.6,1.15.46,2.58.74,2.85,2.33-.42,2.05-2.06,1.55-3.39,1.56-9.35.02-18.7.06-28.04-.03-1.82-.02-2.44.45-2.37,2.34.19,4.56.06,9.13.28,13.68.15,3.03.6,6.07,3.03,8.32,3.45,5.06,15.51,3.7,20.16-1.47,3.37-2.3,5.25-5.69,6.58-9.38.64-1.77,1.94-1.73,3.09-1.34,1.35.46.49,1.67.19,2.48-.57,1.51-1.32,2.96-1.99,4.43-1.28,1.72-2.56,3.45-3.84,5.17Z" style="fill: #7c201d; fill-rule: evenodd;"/>
  <path d="m303.18,200.05c0-2.29,0-4.57,0-6.86,0-1.16-.31-2.37,1.66-2.4,1.64-.02,2.32.52,2.59,2.07.68,3.93,2.27,7.48,4.87,10.51,4.97,5.81,13.21,6.84,19.06,2.41,3.06-2.32,4.32-5.48,3.54-9.2-.71-3.4-3.62-4.42-6.56-5.03-4.04-.84-8.2-1.17-12.17-2.25-9.76-2.65-13.95-9.87-11.88-19.94,1.58-7.73,9.28-12.65,18.27-11.59,2.26.26,4.49.77,6.61,1.68,2.13.92,4.46,3.49,6.05-.73.22-.59,1.19-.43,1.81-.27.89.23.6,1.05.6,1.63.03,4.03.02,8.06.01,12.09,0,.86.15,1.84-1.24,1.69-1.09-.12-2.4.48-2.7-1.43-.56-3.57-2.48-6.44-5.17-8.8-4.11-3.61-10.38-4.05-14.83-1.08-2.97,1.97-3.97,4.79-3.54,8.18.38,3.02,2.96,3.55,5.24,4.08,4.44,1.04,8.96,1.69,13.39,2.77,9.01,2.2,12.14,6.26,12.11,15.45,0,1.84.04,3.73-.33,5.52-2.06,9.78-11.75,15.03-22.31,12.22-2.55-.68-5.05-1.57-7.06-3.24-1.68-1.39-2.77-1.14-4.01.36-.87,1.05-1.95,1.96-3.37,1.32-1.3-.59-.56-1.94-.61-2.93-.11-2.06-.04-4.14-.04-6.21Z" style="fill: #7d221e; fill-rule: evenodd;"/>
  <path d="m111.99,182.1c.01-2.11.02-4.22.03-6.33.06-2.06.23-4.13.15-6.18-.09-2.46,1.09-5.61-.56-7.15-1.25-1.16-4.33-.36-6.6-.43-.33-.01-.65,0-.98,0-1.65.02-1.13-1.22-1.21-2.1-.11-1.12.34-1.37,1.51-1.38,6.52-.05,13.04-.11,19.55-.47,2.24-.12,2.71.43,2.69,2.56-.05,8.59.08,17.17.15,25.76-.35,1.84-.29,3.69-.09,5.53-.04,4.03,0,8.06-.14,12.09-.06,1.67.64,2.05,2.12,1.98,1.85-.09,3.7,0,5.56-.03,1.17-.02,2.08-.06,2.07,1.63,0,1.53-.61,1.77-1.93,1.76-9.91-.04-19.83-.03-29.75,0-1.15,0-1.78-.16-1.79-1.57,0-1.43.46-2.01,1.87-1.82.21.03.43,0,.65,0,6.9-.14,6.93-.14,6.89-7.23-.03-5.55-.13-11.1-.21-16.64Z" style="fill: #7c1f1d; fill-rule: evenodd;"/>
  <path d="m220.97,205.23c1.28-1.72,2.56-3.45,3.84-5.17,3.99-1.09,8.5-6.51,8.81-10.58.31-4.03-2.21-8.01-6.35-10-.27-1.6-1.7-1.87-2.85-2.33-3.92-1.57-7.88-3.03-12.23-2.6-6.12-1.06-12.3-1.21-18.49-1.07.03-1.22.06-2.44.09-3.66,6.24-.32,12.47-.05,18.7.23,4.66,1.24,9.47,1.9,13.99,3.69,4.32,1.94,7.49,5.22,10.26,8.95.75,3.66.27,7.47,1.44,11.07-3.81,6.72-10.09,9.73-17.22,11.48Z" style="fill: #fac11d; fill-rule: evenodd;"/>
  <path d="m126.64,191.92c-.2-1.85-.26-3.7.09-5.53,7.04,3.85,14.08,7.7,21.82,10.04-.02,1.5-.03,2.99-.05,4.49-7.66-2.08-14.69-5.71-21.86-8.99Z" style="fill: #fac11d; fill-rule: evenodd;"/>
  <path d="m185.94,204.54c1.94,1.39,3.89,2.79,5.84,4.18-6.52.2-12.9-1.04-19.34-1.69-1.13-2.1-3.07-.98-4.6-1.01-5.07-.11-5.07-.01-4.77-4.84,7.58,1.45,15.11,3.2,22.87,3.36Z" style="fill: #fbc424; fill-rule: evenodd;"/>
  <path d="m263.61,160.71c-2.59,12.66-5.99,25.08-10.71,37.12-.59-4.25-.36-8.52-.25-12.79,2.8-7.62,4.63-15.48,5.91-23.48,1.59-.78,3.28-1.01,5.04-.86Z" style="fill: #fbc424; fill-rule: evenodd;"/>
  <path d="m179.08,176.24c-3.16.55-5.98,1.93-8.71,3.53-1.32.78-2.74,1.32-3.71-.26-1.14-1.84.6-2.47,1.77-3.14,3.88-2.22,7.93-4.04,12.44-4.53-.6,1.46-1.19,2.92-1.79,4.39Z" style="fill: #fbc424; fill-rule: evenodd;"/>
  <path d="m196.79,205.34c6.76.08,13.46-.6,20.15-1.46-4.64,5.16-16.7,6.52-20.15,1.46Z" style="fill: #fac11d; fill-rule: evenodd;"/>
  <path d="m127.03,134.88c-.07,4.48-3.8,8.05-8.25,7.92-4.36-.14-7.79-3.67-7.8-8.04-.01-4.54,3.51-8.04,8.08-8.01,4.54.03,8.05,3.6,7.98,8.13Z" style="fill: #e2101d; fill-rule: evenodd;"/>
</svg>