<?xml version="1.0" encoding="UTF-8"?>
<svg id="uuid-d2855f89-8c20-43dd-bcdd-6d26e3112bb6" data-name="Calque 1" xmlns="http://www.w3.org/2000/svg" width="291" height="142" viewBox="0 0 291 142">
  <path d="m30.47,52.53h-13.08l6.21-17.21,6.87,17.21Zm-1.74-23.11h-5.23l-13.62,35.96c-2.06,5.18-2.65,6.51-8.53,8.09v1h18.41v-1c-2.98-.46-7.54-.46-7.54-4.51,0-3.18,2.91-10.06,4.03-13.38h15.07l6.87,18.89h12.47v-1c-5.69-1-6.55-2.91-8.32-7.76l-13.62-36.29Z" style="fill: #894b19;"/>
  <path d="m164.37,52.59h-13.09l6.21-17.21,6.88,17.21Zm-1.74-23.11h-5.23l-13.61,35.96c-2.06,5.18-2.64,6.51-8.53,8.09v.98h18.41v-.98c-2.98-.47-7.55-.47-7.55-4.51,0-3.17,2.91-10.06,4.03-13.38h15.07l6.87,18.88h12.48v-.98c-5.69-1.01-6.54-2.91-8.32-7.76l-13.63-36.29Z" style="fill: #894b19;"/>
  <path d="m69.22,30.67c6.94-.07,14.11,3.03,14.11,10.8,0,7.35-7.76,10.27-14.11,10.34v-21.14Zm0,43.79v-21.29c4.64.8,7.02-.78,9.65,4.72,1.38,2.83,5.3,8.6,9.65,13.16,3.83,3.99,10.18,3.68,17.17,3.41v-1.07c-11.29-1.66-18.7-13.05-23.77-22l-.35-.47c4.76-2.11,9.07-5.3,9.07-10.85,0-3.18-2.2-10.67-18.85-10.67h-8.79l-.07,34.18c-.21,6.82-.27,8.81-8.2,9.87v1h14.48Z" style="fill: #894b19;"/>
  <path d="m212.84,29.42v.99c-7.92,1.06-8.2,3.04-8.2,9.87v21.73c0,3.32,0,6.83.99,10.01l8.07.4c10.04.24,11.69-2.18,16.79-10.66l.85.39-3.76,12.33h-37.84v-1c7.93-1.06,7.99-3.05,8.18-9.87V29.42h14.93Z" style="fill: #894b19;"/>
  <path d="m234.34,74.47v-1c7.92-1.06,7.99-3.05,8.19-9.87V29.42h14.78v.99c-7.94,1.06-8,3.04-8.2,9.87v34.19h-14.76Z" style="fill: #894b19;"/>
  <path d="m285.74,41.08h-1.05c-1.52-5.37-3.23-9.87-9.77-9.87-4.24,0-7.28,2.24-7.28,6.61,0,11.47,22.21,11.07,22.21,24.44,0,8.56-8.45,12.99-16.05,12.99-4.05,0-9.4-.98-12.75-3.17v-11.46h1.19c.84,6.35,5.28,11.9,12.56,11.9,4.89,0,8.11-2.17,8.11-7.33,0-11.79-21.46-10.73-21.46-23.98,0-7.76,7.67-12.65,14.73-12.65,3.38,0,6.74,1.01,9.66,2.58l-.09,9.94Z" style="fill: #894b19;"/>
  <path d="m144.94,92.27c66.52,0,123.57,4.18,144.71,6.84-8.98-3.21-70.6-13.11-144.71-13.11S10.12,95.91,1.16,99.11c21.13-2.66,77.27-6.84,143.78-6.84Z" style="fill: #c9d200;"/>
  <g>
    <path d="m260.81,1.06c-2.69,0-5.03.76-6.93,2.24.1,0,.18,0,.27,0h9.07s-2.51,9.54-3.37,12.61c-1.08,3.81-5.05,5.39-8.72,5.39,0,0-2.44-.06-5.08.07-.33,1.1-.63,2.02-.91,2.64,3.82-1.09,12.09-.87,12.09-.87,4.4,0,9.16-1.92,10.44-6.63,1.03-3.77,3.98-15.45,3.98-15.45h-10.87Z" style="fill: #c9d200;"/>
    <path d="m253.16,5.06c-4.07,0-6.85,2.4-8.24,7.11-.33,1.12-1.62,6.48-2.38,8.11,2.62-.71,8.3-.57,8.3-.57,3.02,0,6.27-1.28,7.16-4.42.7-2.52,2.61-10.23,2.61-10.23h-7.46Z" style="fill: #00722d;"/>
  </g>
  <path d="m1.42,132.24v-.56c4.31-.58,4.34-1.64,4.45-5.34v-18.55h7.96v.53c-4.3.59-4.33,1.67-4.44,5.37v18.55H1.42Z" style="fill: #894b19;"/>
  <path d="m31.74,123.35l-.03,4.71c0,2.95.14,3.23,2.51,3.62v.56h-5.29v-7.98c0-1.95.45-5.95-4.01-5.95-1.54,0-2.61.3-3.62,1.34v12.59h-5.37v-.56c2.47-.39,2.58-.82,2.62-3.62v-7.62c-.04-2.74-.15-3.16-2.05-3.57v-.53h4.81v2.45c1.65-1.44,3.51-2.81,5.81-2.81,5.29,0,4.62,5.43,4.62,7.37Z" style="fill: #894b19;"/>
  <path d="m47.27,120.42h-.72c-.18-1.7-.83-3.23-3.01-3.38-1.47-.09-2.36.88-2.36,2.32,0,3.69,7.66,3.77,7.77,8.31.08,3.67-2.61,5.16-6.13,5-1.64-.08-2.65-.22-4.27-.91l.21-4.5.83-.03c-.03,2.21,1.19,4.26,3.72,4.26,1.65,0,2.77-1.06,2.77-2.67,0-4.1-7.49-3.2-7.49-8.35,0-2.81,2.44-4.5,4.98-4.5,1.4,0,2.69.26,3.87,1.33l-.17,3.1Z" style="fill: #894b19;"/>
  <path d="m55.04,117.85h-2.4v-.54c2.98-1.43,3.73-2.65,4.72-4.72h.63v3.75h2.88v1.5h-2.81v10.21c.03,2.8.15,3.23,2.81,3.62v.56h-5.83v-14.39Z" style="fill: #894b19;"/>
  <path d="m77.96,117.85h-2.4v-.54c2.97-1.43,3.73-2.65,4.73-4.72h.62v3.75h2.88v1.5h-2.81v10.21c.04,2.8.16,3.23,2.81,3.62v.56h-5.83v-14.39Z" style="fill: #894b19;"/>
  <path d="m111.65,117.86h-2.4v-.54c2.98-1.42,3.73-2.65,4.73-4.72h.61v3.75h2.88v1.5h-2.81v10.21c.04,2.8.15,3.23,2.81,3.62v.56h-5.83v-14.39Z" style="fill: #894b19;"/>
  <path d="m64.19,116.88v-.53h5.59v11.71c0,2.95.14,3.23,2.8,3.62v.56h-5.81v-11.72c0-2.81-.11-3.23-2.58-3.64Zm5.72-7.71c0,1.08-.89,2-1.97,2s-1.97-.92-1.97-2,.89-1.97,1.97-1.97,1.97.9,1.97,1.97Z" style="fill: #894b19;"/>
  <path d="m105.72,116.35v.49c-2.47.41-2.58.84-2.58,3.72l-.04,7.44c.08,2.87.18,3.3,2.66,3.69v.56h-5.64v-2.27c-1.94,1.41-4.05,2.63-6.49,2.63-4.05,0-3.97-3.7-3.97-5.21v-6.9c-.04-2.81-.15-3.24-2.62-3.65v-.49h5.37v8.88c0,1.46-.43,5.36,3.77,5.36,1.46,0,2.94-.63,4.02-1.6v-12.65h5.52Z" style="fill: #894b19;"/>
  <path d="m142.81,123.01v4.19c0,2.31-.25,4.28-3.11,4.28-1.38,0-3.99-.86-3.99-4.31,0-2.98,2.41-4.66,4.8-4.66.84,0,1.55.18,2.31.5Zm2.11-5.43c.02-1.93.09-2.23,1.8-2.49v-.39h-3.9v7.53c-1.21-.66-2.73-1.19-4.13-1.19-2.76,0-5.29,2.74-5.29,5.34,0,4.39,4.02,6.1,7.38,6.1,1.49,0,2.8-.39,4.14-.99v-13.91Z" style="fill: #894b19;"/>
  <path d="m161.52,121.28v.36c-1.7.27-1.78.57-1.78,2.55l-.02,5.14c.04,1.98.13,2.27,1.83,2.54v.39h-3.83v-1.57c-1.33.97-2.8,1.81-4.49,1.81-2.8,0-3-2.55-3-3.59v-4.78c-.03-1.92-.09-2.22-1.81-2.49v-.36h3.97v6.13c0,1.03-.29,3.59,2.6,3.59,1.01,0,2.02-.33,2.77-1.03v-8.7h3.76Z" style="fill: #894b19;"/>
  <path d="m184.37,128.75l1.59-3.82c.48-1.25,2.13-5.49,2.13-6.68s-1.36-1.23-2.26-1.38v-.53h6.24v.53c-2.22-.09-3.05,2.78-3.88,4.73l-4.72,11.02h-.58l-5.25-12.68c-.68-1.62-.89-2.88-2.93-3.07v-.53h4.66l4.98,12.4Z" style="fill: #894b19;"/>
  <path d="m197.9,121.82c.25-2.91,1.76-5.03,3.8-5.03,1.91,0,3.24,1.94,3.3,4.49l-7.1.55Zm6.56-15.32l-5.34,7.45.49.43,6.53-6.12-1.68-1.76Zm-6.68,16.14l10.52-.42c.21-4.03-2.26-6.23-5.48-6.23-4.86,0-8.07,4-8.07,8.64,0,4.32,3.08,7.98,7.52,7.98,2.8,0,5.23-1.82,6.61-4.16l-.55-.4c-1.07,1.44-2.36,2.26-4.24,2.26-4.04,0-6.56-3.13-6.31-7.65Z" style="fill: #894b19;"/>
  <path d="m220.95,126.32c-1.61,0-3.76-1.63-3.76-5.19,0-1.94.75-4.34,3.08-4.34,2.68,0,3.73,2.72,3.73,5.07,0,2.01-.64,4.46-3.05,4.46Zm1.73,5.7c.89-.03,5.56-.54,5.56,2.84,0,3.2-4.01,4.32-6.6,4.32-2.02,0-5.8-.72-5.8-3.35,0-1.59,2.03-3.02,3.34-3.59l3.51-.23Zm3.91-12.93c-.18-.66.14-1.26.93-1.35.53-.04,1.11.44,1.48.76.53-.25,1.22-.83,1.22-1.48,0-.6-.54-1.04-1.19-1.04-1.19,0-2.26,1.08-2.87,2.13-1-1.81-3.61-2.13-5.26-2.13-3.38,0-6.74,2.05-6.74,5.77,0,2.02,1.22,3.62,2.93,4.6-.82.65-2.71,2.04-2.71,3.15,0,1.65,2.29,2.56,3.65,2.74-2.04,1.07-4.8,2.32-4.8,5.02,0,1.51,1.75,3.67,6.02,3.67,6.39,0,11.16-4.01,11.16-7.54,0-2.4-2.11-4.03-5.95-3.89l-4.6.18c-3.31.16-3.34-1.94-2.15-3.06.85.34,1.79.46,2.7.46,3.37,0,6.67-2.07,6.67-5.74,0-.86-.25-1.56-.47-2.26Z" style="fill: #894b19;"/>
  <path d="m237.35,121.82c.26-2.91,1.76-5.03,3.79-5.03,1.92,0,3.24,1.94,3.31,4.49l-7.1.55Zm6.55-15.32l-5.33,7.45.51.43,6.53-6.12-1.71-1.76Zm-6.66,16.14l10.51-.42c.22-4.03-2.27-6.23-5.49-6.23-4.85,0-8.06,4-8.06,8.64,0,4.32,3.08,7.98,7.52,7.98,2.8,0,5.23-1.82,6.6-4.16l-.55-.4c-1.06,1.44-2.36,2.26-4.21,2.26-4.07,0-6.59-3.13-6.33-7.65Z" style="fill: #894b19;"/>
  <path d="m254.53,117.85h-2.4v-.54c2.96-1.43,3.73-2.65,4.72-4.72h.64v3.75h2.88v1.5h-2.81v10.21c.06,2.8.17,3.23,2.81,3.62v.56h-5.84v-14.39Z" style="fill: #894b19;"/>
  <path d="m272.67,124.35v4.94c-.64.67-1.62,1.39-2.59,1.39-1.65,0-2.86-.93-2.86-2.42,0-3.33,3.11-3.5,5.45-3.91Zm0-.78c-6.05.87-8.06,2.53-8.36,4.81-.26,2.17,1.51,4.22,3.8,4.22,1.83,0,3.42-1.14,4.56-2.45l.16,2.09h5.15v-.56c-2.47-.39-2.58-.82-2.62-3.62l.08-6.69c0-2.87-1-5.39-4.29-5.39-2.92,0-6.88,3.74-6.88,4.72,0,.4.56.36.84.36l1.78-.1c0-1.99-.23-3.17,2.24-3.17,2.82,0,3.84,1.62,3.54,5.78Z" style="fill: #894b19;"/>
  <path d="m285.65,106.82v21.25c.03,2.8.14,3.23,2.78,3.62v.56h-5.93v-21.29c0-2.76-.11-3.2-2.59-3.58v-.55h5.73Z" style="fill: #894b19;"/>
  <path d="m95.02,29.14v1.13c5.74.78,7.35,4.72,9.24,9.33l17.12,36.82h1.19l3.34-8.7-17.78-38.49-12.96-.08h-.15Z" style="fill: #894b19;"/>
  <path d="m152.39,5.17l-.09.04-27.78,59.54-3.14,11.67h1.9l14.58-30.55c11.63-27.27,19.72-40.39,23.82-40.39l.27-.03v-1.51l-.25-.04c-5.22-.7-9.16,1.19-9.3,1.28Z" style="fill: #bb7400;"/>
</svg>