<?xml version="1.0" encoding="UTF-8"?>
<svg id="Calque_1" data-name="Calque 1" xmlns="http://www.w3.org/2000/svg" viewBox="0 0 24 14">
  <g>
    <path d="m2.41,5.89s.3.07.65.13c.02-.11.05-.23.07-.34.05-.24.11-.46.16-.57-.45.15-1.45.18-1.45.18-.53.03-1.09.29-1.22.85-.1.45-.36,1.82-.36,1.82h0c.03-.06.6-1.21.8-1.59.26-.49.85-.58,1.35-.47Z" style="fill: #f4b000;"/>
    <path d="m3.06,6.03c-.05.24-.09.45-.11.53-.2.84-.66,1.29-1.38,1.33l-.58.03-.72.04s0,0,0,0l1.23.27c.68.15,1.22-.15,1.63-.88.09-.17.5-1.01.69-1.26-.2.01-.49-.03-.75-.07Z" style="fill: #0096ab;"/>
    <path d="m1.57,7.89c.72-.04,1.18-.49,1.38-1.33.02-.08.06-.29.11-.53-.34-.06-.65-.13-.65-.13-.5-.11-1.09-.02-1.35.47-.2.38-.77,1.53-.8,1.59l.72-.04.58-.03Z" style="fill: #047a7a;"/>
  </g>
  <g>
    <path d="m4.84,5.22h.68l1.39,3.06h-.7l-.22-.48h-1.62l-.22.48h-.7l1.39-3.06Zm.94,2.06l-.37-.87c-.1-.23-.22-.54-.23-.54,0,0-.13.31-.23.54l-.37.87h1.19Z" style="fill: #047a7a;"/>
    <path d="m7.27,5.22h1.37c.94,0,1.43.53,1.43,1.18,0,.39-.21.77-.61.97l.67.91h-.79l-.49-.73c-.09.01-.18.02-.27.02h-.62v.71h-.69v-3.06Zm1.39,1.79c.4,0,.69-.28.69-.61s-.28-.62-.68-.62h-.7v1.23h.7Z" style="fill: #047a7a;"/>
    <path d="m10.2,5.22h.7l.7,1.8c.07.17.19.51.19.54,0-.02.12-.36.19-.54l.71-1.8h.7l-1.24,3.06h-.71l-1.24-3.06Z" style="fill: #047a7a;"/>
    <path d="m14.45,5.22h.68l1.39,3.06h-.7l-.22-.48h-1.62l-.22.48h-.7l1.39-3.06Zm.94,2.06l-.37-.87c-.1-.23-.22-.54-.23-.54,0,0-.13.31-.23.54l-.37.87h1.19Z" style="fill: #047a7a;"/>
    <path d="m16.88,5.22h.69v2.49h1.85v.56h-2.54v-3.06Z" style="fill: #047a7a;"/>
    <path d="m21.09,7.92l.25-.51c.26.18.56.33,1.05.33.27,0,.59-.12.59-.36s-.29-.3-.57-.36c-.6-.13-1.21-.32-1.21-.96,0-.59.58-.88,1.19-.88.48,0,.85.12,1.17.32l-.25.51c-.26-.16-.59-.24-.92-.24-.17,0-.48.06-.48.29,0,.2.23.27.55.34.57.13,1.25.33,1.25.98s-.67.94-1.31.94c-.76,0-1.12-.28-1.3-.41Z" style="fill: #047a7a;"/>
  </g>
  <path d="m3.47,8.79c6.12-.27,12.18-.12,18.3.22.61.04,1.3.08,1.9.12-.81-.03-1.72-.05-2.54-.07-4-.08-8.04-.06-12.04.08-.52.02-1.53.07-2.06.09-.52.03-1.22.07-1.74.1-.45.03-1.36.11-1.81.14,0,0-.01-.68-.01-.68h0Z" style="fill: #047a7a;"/>
  <path d="m19.89,6.43l.69-.38v2.23h-.69v-1.84Z" style="fill: #047a7a;"/>
  <path d="m19.89,5.22h.69v.44l-.69.37v-.81Z" style="fill: #f4b000;"/>
</svg>